<?xml version='1.0' encoding='iso-8859-1'?>
<svg version="1.1" xmlns="http://www.w3.org/2000/svg" viewBox="0 0 191.413 191.413" xmlns:xlink="http://www.w3.org/1999/xlink" enable-background="new 0 0 191.413 191.413">
  <g>
    <g>
      <path d="M34.802,0C15.661,0,0,15.661,0,34.802v121.808c0,19.141,15.661,34.802,34.802,34.802s34.802-15.661,34.802-34.802V34.802    C69.605,15.661,53.944,0,34.802,0z M52.204,156.611c0,10.441-6.96,17.401-17.401,17.401s-17.401-6.96-17.401-17.401V34.802    c0-10.441,6.96-17.401,17.401-17.401s17.401,6.96,17.401,17.401V156.611z"/>
      <path d="M156.611,0c-19.141,0-34.802,15.661-34.802,34.802v121.808c0,19.141,15.661,34.802,34.802,34.802    s34.802-15.661,34.802-34.802V34.802C191.413,15.661,175.752,0,156.611,0z M174.012,156.611c0,10.441-6.96,17.401-17.401,17.401    s-17.401-6.96-17.401-17.401V34.802c0-10.441,6.96-17.401,17.401-17.401s17.401,6.96,17.401,17.401V156.611z"/>
    </g>
  </g>
</svg>
